<svg width="522" height="144" viewBox="0 0 522 144" fill="none" xmlns="http://www.w3.org/2000/svg">
<path d="M213.284 46.7296C205.062 42.1103 195.699 39.7637 185.46 39.7637C175.222 39.7637 165.96 42.1103 157.773 46.7296C149.591 51.3489 143.091 57.7012 138.449 65.6159C133.818 73.5137 131.466 82.2921 131.466 91.7012C131.466 101.11 133.818 109.963 138.449 117.832C143.091 125.713 149.591 132.053 157.773 136.667C165.96 141.292 175.244 143.633 185.364 143.633C195.483 143.633 204.983 141.303 213.233 136.718C221.489 132.127 228.023 125.786 232.665 117.872C237.295 109.968 239.648 101.161 239.648 91.6955C239.648 82.2296 237.295 73.5137 232.665 65.6103C228.023 57.7012 221.506 51.3432 213.29 46.7239M199.403 115.701C195.347 118.019 190.687 119.201 185.562 119.201C180.437 119.201 175.778 118.025 171.722 115.701C167.665 113.383 164.409 110.099 162.062 105.951C159.699 101.781 158.5 96.9853 158.5 91.6955C158.5 86.4057 159.699 81.6841 162.062 77.4796C164.409 73.3034 167.682 69.9909 171.773 67.6387C175.864 65.2921 180.5 64.0989 185.562 64.0989C190.625 64.0989 195.261 65.2921 199.352 67.6387C203.449 69.9909 206.716 73.3034 209.068 77.4796C211.432 81.6841 212.631 86.4682 212.631 91.6955C212.631 96.9228 211.432 101.781 209.068 105.951C206.721 110.099 203.466 113.377 199.403 115.701Z" fill="#011FE5"/>
<path d="M279.193 105.07C279.193 118.729 286.244 120.309 291.546 120.309H310.949C311.011 120.309 311.063 120.36 311.063 120.423V143.474C311.063 143.536 311.011 143.587 310.949 143.587H286.733C276.875 143.587 268.557 140.792 262.006 135.286C255.347 129.695 251.972 119.173 251.972 104.014V22.8374C251.972 16.4511 257.119 11.2579 263.511 11.2011H263.517L267.46 11.167C273.938 11.167 279.193 16.4227 279.193 22.8999V40.1102C279.193 40.1727 279.244 40.2238 279.307 40.2238H299.313C305.801 40.2238 311.063 45.4852 311.063 51.9738V52.4227C311.063 58.9113 305.801 64.1727 299.313 64.1727H279.307C279.244 64.1727 279.193 64.2238 279.193 64.2863V105.07Z" fill="#011FE5"/>
<path d="M522 143.673H495.239V83.5308C495.239 77.099 493.625 72.0536 490.46 68.5195C487.278 64.9683 482.989 63.2467 477.352 63.2467C471.716 63.2467 467.437 64.9683 464.29 68.5195C461.142 72.0536 459.545 77.1047 459.545 83.5252V143.673H432.693V83.5308C432.693 77.099 431.08 72.0536 427.909 68.5195C424.727 64.9683 420.437 63.2467 414.801 63.2467C409.165 63.2467 404.886 64.9683 401.739 68.5195C398.591 72.0592 396.994 77.1047 396.994 83.5252V143.673H370.233V83.4967C370.233 69.4854 374.045 60.0706 381.58 52.1558C389.148 44.207 400.324 40.1786 414.801 40.1786C431.028 40.1786 441.097 48.1388 443.79 50.5763L446.483 52.8206L449.597 50.4002C457.193 44.2581 467.568 40.4286 477.324 40.1786C491.636 39.8206 503.261 44.0763 510.83 52.5195C518.233 60.4627 521.994 69.7581 521.994 83.4854V143.667L522 143.673Z" fill="#011FE5"/>
<path d="M66.7102 143.627L52.0227 143.548C23.3693 143.548 0 120.116 0 91.3375V15.4227C0 7.22386 6.625 0.559082 14.8295 0.559082C23.0341 0.559082 29.6591 7.20113 29.6591 15.4284V91.3716C29.6591 103.758 39.7216 113.849 52.0625 113.849L66.75 113.928C79.0739 113.928 89.1534 103.945 89.1534 91.7011C89.1534 79.4568 79.0909 69.4739 66.6875 69.4739H59.4375C51.2557 69.4739 44.608 62.8318 44.608 54.6045C44.608 46.3773 51.233 39.7352 59.4375 39.7352H66.6875C95.4205 39.7352 118.79 63.025 118.79 91.6784C118.79 120.332 95.4318 143.622 66.6875 143.622V143.65L66.7045 143.633L66.7102 143.627Z" fill="#011FE5"/>
<path opacity="0.3" d="M14.7784 30.2409C22.9432 30.2409 29.5568 23.6045 29.5568 15.4227C29.5568 7.24086 22.9432 0.604492 14.7784 0.604492C6.61364 0.604492 0 7.24086 0 15.4227C0 23.6045 6.61364 30.2409 14.7784 30.2409Z" fill="white"/>
<path opacity="0.3" d="M59.409 69.4171C67.5738 69.4171 74.1874 62.7808 74.1874 54.5989C74.1874 46.4171 67.5738 39.7808 59.409 39.7808C51.2442 39.7808 44.6306 46.4171 44.6306 54.5989C44.6306 62.7808 51.2442 69.4171 59.409 69.4171Z" fill="white"/>
<path d="M354.392 53.8321V143.588H327.176V53.8321C327.176 46.315 333.267 40.2241 340.784 40.2241C348.301 40.2241 354.392 46.315 354.392 53.8321Z" fill="#011FE5"/>
<path d="M340.784 30.0758C348.949 30.0758 355.563 23.4395 355.563 15.2576C355.563 7.07582 348.949 0.439453 340.784 0.439453C332.62 0.439453 326.006 7.07582 326.006 15.2576C326.006 23.4395 332.62 30.0758 340.784 30.0758Z" fill="#4D62ED"/>
</svg>
